<svg width="71" height="71" viewBox="0 0 71 71" fill="none" xmlns="http://www.w3.org/2000/svg">
<path d="M57.9937 9.24374L35.1187 32.1187M12.2437 54.9938L35.1187 32.1187M35.1187 32.1187L57.9937 54.9938L12.2437 9.24374" stroke="black"/>
<g filter="url(#filter0_d_4_263)">
<path d="M20.25 38.6L12.625 25.6375L5 38.6H20.25Z" fill="#F37922"/>
<path d="M20.25 38.6L12.625 25.6375L5 38.6H20.25Z" stroke="black"/>
</g>
<g filter="url(#filter1_d_4_263)">
<path d="M50.75 25.6375L58.375 38.6L66 25.6375H50.75Z" fill="#21B8D9"/>
<path d="M50.75 25.6375L58.375 38.6L66 25.6375H50.75Z" stroke="black"/>
</g>
<path d="M32.6134 7.71875L35.8812 2L39.1491 7.71875L43.5062 15.3438H28.2562L32.6134 7.71875Z" fill="#C8DDDE"/>
<path d="M39.1491 7.71875L43.5062 15.3438H28.2562L35.8812 2L39.1491 7.71875ZM39.1491 7.71875H43.125H27.875" stroke="black"/>
<g filter="url(#filter2_d_4_263)">
<path d="M38.768 55.375L35.5001 61.0938L32.2322 55.375L27.8751 47.75H43.1251L38.768 55.375Z" fill="#4DD24B"/>
<path d="M32.2322 55.375L27.8751 47.75H43.1251L35.5001 61.0938L32.2322 55.375ZM32.2322 55.375H28.2563H43.5063" stroke="black"/>
</g>
<defs>
<filter id="filter0_d_4_263" x="0.125977" y="24.6513" width="24.998" height="22.4487" filterUnits="userSpaceOnUse" color-interpolation-filters="sRGB">
<feFlood flood-opacity="0" result="BackgroundImageFix"/>
<feColorMatrix in="SourceAlpha" type="matrix" values="0 0 0 0 0 0 0 0 0 0 0 0 0 0 0 0 0 0 127 0" result="hardAlpha"/>
<feOffset dy="4"/>
<feGaussianBlur stdDeviation="2"/>
<feComposite in2="hardAlpha" operator="out"/>
<feColorMatrix type="matrix" values="0 0 0 0 0.952941 0 0 0 0 0.47451 0 0 0 0 0.133333 0 0 0 1 0"/>
<feBlend mode="normal" in2="BackgroundImageFix" result="effect1_dropShadow_4_263"/>
<feBlend mode="normal" in="SourceGraphic" in2="effect1_dropShadow_4_263" result="shape"/>
</filter>
<filter id="filter1_d_4_263" x="45.876" y="25.1375" width="24.998" height="22.4487" filterUnits="userSpaceOnUse" color-interpolation-filters="sRGB">
<feFlood flood-opacity="0" result="BackgroundImageFix"/>
<feColorMatrix in="SourceAlpha" type="matrix" values="0 0 0 0 0 0 0 0 0 0 0 0 0 0 0 0 0 0 127 0" result="hardAlpha"/>
<feOffset dy="4"/>
<feGaussianBlur stdDeviation="2"/>
<feComposite in2="hardAlpha" operator="out"/>
<feColorMatrix type="matrix" values="0 0 0 0 0.129412 0 0 0 0 0.721569 0 0 0 0 0.85098 0 0 0 1 0"/>
<feBlend mode="normal" in2="BackgroundImageFix" result="effect1_dropShadow_4_263"/>
<feBlend mode="normal" in="SourceGraphic" in2="effect1_dropShadow_4_263" result="shape"/>
</filter>
<filter id="filter2_d_4_263" x="23.0137" y="47.25" width="24.9731" height="22.8515" filterUnits="userSpaceOnUse" color-interpolation-filters="sRGB">
<feFlood flood-opacity="0" result="BackgroundImageFix"/>
<feColorMatrix in="SourceAlpha" type="matrix" values="0 0 0 0 0 0 0 0 0 0 0 0 0 0 0 0 0 0 127 0" result="hardAlpha"/>
<feOffset dy="4"/>
<feGaussianBlur stdDeviation="2"/>
<feComposite in2="hardAlpha" operator="out"/>
<feColorMatrix type="matrix" values="0 0 0 0 0.301961 0 0 0 0 0.823529 0 0 0 0 0.290196 0 0 0 1 0"/>
<feBlend mode="normal" in2="BackgroundImageFix" result="effect1_dropShadow_4_263"/>
<feBlend mode="normal" in="SourceGraphic" in2="effect1_dropShadow_4_263" result="shape"/>
</filter>
</defs>
</svg>
